<svg id="Layer_1" data-name="Layer 1" xmlns="http://www.w3.org/2000/svg" viewBox="0 0 1483.85 819.8"><path d="M400.31,48.68q40.47,2,80.95,4c13,.65,26,1.16,39,2,23.61,1.6,46.81,6.05,70,10.62,36.11,7.14,72.09,15,108.31,21.45,23.4,4.18,47.09,6.94,70.75,9.53,21.41,2.34,42.76.14,64-3.24,13.83-2.21,27.79-3.64,41.54-6.27,31.43-6,62.71-12.8,94.15-18.76q35.37-6.69,71-12c11.85-1.74,23.93-1.85,35.91-2.67q59.34-4.06,118.81-4.27c29.07-.07,58,1.76,86.92,4.58q37.34,3.64,74.64,7.68a227.38,227.38,0,0,1,42.33,8.38c4.44,1.37,7.29,3.76,8.8,8.07,4.73,13.53,7.45,27.37,6.76,41.8-.19,3.81-1.82,5.95-5.14,8a134.75,134.75,0,0,0-18.1,12.77,65.08,65.08,0,0,0-21.6,36.51c-5.25,23.83-10.63,47.65-16.69,71.28-9.54,37.26-21,73.93-38.55,108.35-10,19.52-21.7,37.8-37.86,53-17.31,16.25-37.56,27.12-60.17,33.71-10.93,3.18-21.93,6.3-33.1,8.42-17.53,3.31-35.37,4.34-53.18,4.66-19.41.35-38.84.33-58.25-.16a267.21,267.21,0,0,1-82.79-15.76c-25.18-8.93-45.1-24.48-59-47.65-19.51-32.5-37-66-50.42-101.46-11.56-30.7-22.22-61.73-33.55-92.52-3.51-9.55-7.8-18.84-12-28.15-4.33-9.72-12-15-22.45-17a136.9,136.9,0,0,0-46.56-1.14c-12.07,1.87-20.86,8.05-26.3,19.4-7.55,15.76-13.28,32.17-18.84,48.66-10.25,30.33-21,60.46-33.61,89.92-11.64,27.28-25.72,53.31-40.56,79-15.54,26.86-38.32,43.92-67.64,53.2A292.12,292.12,0,0,1,488,456.53c-22.81-.09-45.66-.26-68.43-1.51-32.05-1.75-62.86-9.1-91.73-23.62-20.09-10.1-36.23-24.83-49.43-42.86-16.82-23-28.45-48.69-38.09-75.29C226.45,275,216.4,235.67,207.83,195.93c-1.56-7.23-3.28-14.43-4.84-21.66-3.13-14.55-11.29-26-22.46-35.3a122.78,122.78,0,0,0-16.79-11.5c-3.2-1.87-4.75-4.13-4.9-7.56a105.68,105.68,0,0,1,7.7-44c1.31-3.31,3.85-4.77,7.09-5.82,13.77-4.46,27.94-6.92,42.26-8.64,15.3-1.83,30.59-3.78,45.93-5.23C307.87,51.9,353.93,47.71,400.31,48.68Zm753,42.07c0,.24,0,.47,0,.7-12.2.42-24.41.65-36.6,1.32-13.38.72-26.8,1.39-40.11,2.92-18.87,2.17-37.68,5-56.47,7.75-25.79,3.85-51,9.78-75.12,20.14-14.74,6.34-27.8,14.93-38.72,26.74A48.06,48.06,0,0,0,896,167.09c-4.49,12.59-4.52,25.58-3.16,38.58a478.23,478.23,0,0,0,9.28,56.81c10.34,45.37,27.48,87.57,54.34,125.89,14.55,20.75,33.88,32.66,58,38.32,27.26,6.38,55,8.16,82.78,9a348.74,348.74,0,0,0,77-5.77c13.55-2.62,27.16-4.82,40.24-9.43,26.48-9.33,49.71-23.05,65.1-47.54,2-3.22,4.17-6.37,6-9.68,22.52-40.35,38.76-83,45.85-128.77,3.32-21.48,3.53-43-.53-64.51-5-26.78-19.87-46.27-42.69-60.19a46.49,46.49,0,0,0-10.93-4.85c-21.93-6.49-44.31-11-67.13-12.39C1191.32,91.39,1172.29,91.32,1153.29,90.75Zm-733.5.34c-33.12-.74-66.09.32-98.57,7.44-10.9,2.4-22.31,4.4-32.16,9.26-22.85,11.29-38.65,29.3-45.25,54.58-6.55,25.09-6.1,50.41-1.85,75.67,7.61,45.26,23.82,87.49,46.5,127.29,13.36,23.45,32.55,40.16,57.6,50.41,16.41,6.71,33.39,10.73,50.78,13.9,25.12,4.57,50.32,6.94,75.83,6.07,5.4-.18,10.79-.6,16.19-.66a325.9,325.9,0,0,0,70.74-8.66c19.32-4.54,36.89-12.61,49.51-28.54A286.58,286.58,0,0,0,643.47,343c18-37.91,28.74-78,34.43-119.46a279.72,279.72,0,0,0,2.86-34.05c.26-18.59-6.62-34.27-21.2-46.37-8.06-6.69-16.32-13.1-26.07-16.95-13.18-5.2-26.39-10.66-40-14.36C560,102.74,525.47,99,491.1,95.22,467.46,92.64,443.57,92.38,419.79,91.09Z" transform="translate(-44.55 -48.54)"/><path d="M1018.79,635.6c-4.11-.32-8.11-.35-12-1-20.68-3.26-33.88-16.83-44.65-33.26-14.36-21.91-18.5-46.56-17.09-72.14.61-10.89,5.29-20.65,15-27,8.87-5.86,18.24-6.09,27.49-1.3,14.5,7.49,24.21,19.57,31.06,34.09,10.85,23,12.53,47.4,10.85,72.28-.4,6-1,11.9-1.47,17.85l1.42.57c.82-1.78,2.17-3.5,2.37-5.35a295.23,295.23,0,0,1,19.43-78.23,54.33,54.33,0,0,1,5.87-11c4-5.66,10.19-6.08,14.09-.41a27.41,27.41,0,0,1,4.73,13.22c1,15.26-5.16,28.95-10.86,42.66-6.07,14.58-13.69,28.13-25.18,39.24a6.89,6.89,0,0,0-2.06,3.78q-4.58,39.38-9,78.78l1.89.39c2.53-6.19,5.12-12.36,7.6-18.57,6.88-17.26,15-33.87,27.46-47.84,5.7-6.42,12.39-12,19-17.5a19.74,19.74,0,0,1,9.1-3.76c9.82-1.61,16.63,4.43,15.85,14.72-.73,9.76-2.62,19.45-4.11,29.15-2.08,13.49-4.77,26.9-6.16,40.46-.63,6.08.88,12.51,2.12,18.63.87,4.27,4.5,5.72,8.1,3.33a94.74,94.74,0,0,0,14.71-11.74c1.77-1.77,2.22-5.45,2.23-8.26A82.71,82.71,0,0,1,1137.92,666c1.47-2.55,3.27-5.34,5.66-6.81s6-2.33,8.14-1.37c2.37,1.07,5.25,4.6,5.13,6.91-.34,6.55-.85,13.61-3.57,19.39-4.72,10-11,19.32-17,28.7-1.54,2.42-2.76,4.31-1.62,7.17s1.61,5.8,3,8.4c4.93,9.37,10.92,11.06,20.06,5.7,12.88-7.54,22.7-18.43,31.94-29.87.92-1.13,1.08-3.05,1.19-4.64,1.56-21.23,2.62-42.5,4.7-63.68,1.53-15.52,4.37-30.9,6.76-47.2-7.93.95-16.28,1.76-24.56,3-9,1.34-18,3-27,4.65-2.43.44-5.46,1.81-6.12-1.82-.72-3.92,3-3.87,5.42-4.26,17.07-2.79,34.15-5.54,51.27-8,3-.43,4.08-1.57,5-4.33,3.94-12.2,7.89-24.44,16.41-34.48,6.55-7.72,13-7.5,19.23.64,6.56,8.58,8.46,18.64,9.19,29.07.06.8.14,1.6.26,3,8.81-.86,17.37-1.59,25.9-2.54a636.16,636.16,0,0,1,92.27-3.47,32.58,32.58,0,0,1,8.4,1c1.65.5,2.88,2.39,4.3,3.66-1.64,1-3.3,2.81-4.92,2.78-8-.18-16-1.51-23.94-1.21-23.61.86-47.21,2.15-70.79,3.59-10.28.62-20.52,2-30.45,3-2.33,10.43-4.22,20.54-6.88,30.46-5.71,21.26-16.29,40.38-27.21,59.28-5.82,10.09-12.26,19.82-18.24,29.82a9.2,9.2,0,0,0-1.11,5.51,40.14,40.14,0,0,0,2.43,10.14c4,9.44,9,11.37,18.66,7.77,8.89-3.32,16.78-8.18,23.09-15.28,1.43-1.61,2.18-4,2.8-6.1,3.53-12.25,6.62-24.65,10.58-36.76,1.09-3.32,4.21-6.51,7.21-8.55,5.12-3.48,11.34-.49,11.71,5.68a35.86,35.86,0,0,1-2,13.15,84.45,84.45,0,0,1-18.26,30.68c-3.82,4.1-3.76,12.66,0,16.93,2.13,2.44,4.78,3.39,7.52,1.49,3.4-2.34,7.08-4.67,9.59-7.84,9.3-11.72,18-23.93,27.28-35.66,3.66-4.64,7.75-9.29,12.57-12.56,6.78-4.61,12.34-1.3,12.09,6.9-.19,6.43-1.45,12.85-2.45,19.24-.59,3.76-1.6,7.45-1.73,11.54,1.06-1.54,2.13-3.07,3.18-4.61,12.28-18,24.27-36.25,37-53.93,4.1-5.69,9.9-10.34,15.54-14.66a25.48,25.48,0,0,1,11.4-4.53c9.28-1.39,15.12,4,14.75,13.42a53,53,0,0,1-2.72,13.13c-5.88,19.29-11.38,38.66-13.41,58.82a43.15,43.15,0,0,0,.17,9.9c.61,4.57,4.06,6.72,7.94,4.94,8.39-3.85,16.44-8.47,24.46-13.06.83-.47.88-2.87.76-4.34-2.75-33,7.06-61,32.55-82.89,9-7.71,19.41-10.78,31.16-8.54,9.64,1.85,13.06,6.68,9.27,15.63-4.39,10.35-9.33,20.75-15.82,29.85-13.17,18.46-28,35.61-45.89,49.87a22.18,22.18,0,0,0-1.7,1.77c4.84,5.23,11.19,7.22,17.19,5.63,7.23-1.91,14-5.84,20.69-9.41,1.41-.75,1.92-3.62,2.38-5.63,1.29-5.49,1.87-11.19,3.65-16.51a19.53,19.53,0,0,1,6-8.35c5.81-4.78,13-1.4,13.74,6.13a20.7,20.7,0,0,1-8.53,19.29c-7.86,5.7-10.59,12.44-8.79,21.66.47,2.39.07,4.95.07,7.31,6.3,1.91,12.22,3.58,18,5.52,12,4,22.73,10.23,32.71,17.86a9.14,9.14,0,0,1,2.86,3.87c.27.72-.79,2.76-1.31,2.79-1.65.08-3.7,0-4.94-.91-10-7.36-20.55-13.59-32.38-17.48-4.71-1.56-9.52-2.86-14.76-4.42-.66,11.49-1.19,22.42-2,33.34-1,13.93-1.88,27.79-6.45,41.27-11.19,33-46.18,49.95-76.91,46.25-3.47-.42-7-.86-10.36-1.58-25.74-5.46-39.65-20.8-40.32-51.65-.78-36.49,24.44-58.89,49.74-68.46,19.93-7.55,40.71-9.58,61.87-8.39,5.64.32,11.27.71,17.45,1.09V724.77c-7.77,2.53-15.19,5.91-23,7.21a23.41,23.41,0,0,1-22.12-8c-5.66,3.47-10.92,7.32-16.71,10a43,43,0,0,1-14.68,4.07c-8.07.63-13.38-4.29-12.67-12.45a397.63,397.63,0,0,1,5.63-41.41c2.09-10.74,5.93-21.13,8.81-31.72a33.27,33.27,0,0,0,1.4-9.3c-.1-4.51-3.19-6.83-7.42-5.28s-9,3.41-12.07,6.55c-7.2,7.33-14.33,15-20.06,23.45-13.61,20.12-26.36,40.83-39.6,61.2-1,1.52-3.16,2.26-4.79,3.36-.69-1.84-2.21-3.84-1.92-5.52,2-11.3,4.44-22.52,6.57-33.8,1-5.41,1.69-10.89,2.52-16.34l-2.44-1.18c-3.66,4.1-7.58,8-10.92,12.35-8.29,10.83-16.15,22-24.54,32.74a59,59,0,0,1-10.76,10.36c-10.23,7.8-21,3.46-23.44-9.15-.16-.81-.24-1.64-.48-3.38a44.63,44.63,0,0,1-5.34,4c-7.32,3.86-14.46,8.3-22.18,11.1-8.85,3.22-16.51-.45-21.08-8.79-2-3.59-3.28-7.54-5.12-11.85-1.19,1.25-2.42,2.47-3.57,3.76-8.11,9.15-17,17.42-27.74,23.41-11.69,6.51-21.71,3.55-28.13-8.2-1.5-2.74-2.86-5.54-4.48-8.69-3.8,2.71-7.39,5.58-11.28,8-11.79,7.29-20,3.51-22.56-10.26-2.19-11.67-.66-23.16,1.38-34.69,2.68-15.07,5.13-30.19,7.25-45.35.57-4,2.31-9-2.19-12-5-3.34-9.32-.2-13.26,2.53-14.18,9.85-24.47,23.39-31.84,38.53-8.57,17.58-15.12,36.16-22.53,54.31-.56,1.38-.66,3.14-1.61,4.12-1.16,1.21-3.07,2.56-4.49,2.39-1.13-.12-2.85-2.44-2.85-3.78,0-13.8-.33-27.64.69-41.37,1.28-17.38,3.73-34.68,5.67-52l-1.47-.74c-.94,1.62-2.36,3.14-2.74,4.88-6,27.48-17.39,52.4-35,74.36a120.35,120.35,0,0,1-14.65,15C966.17,736,954,738.57,940.84,737c-10.29-1.22-19.15-10.06-22-21.34-.68-2.72-1.24-5.47-2-8.66-6.29,6.81-12,13.46-18.2,19.6-10.12,10-21.1,18.84-34.73,23.84-20.1,7.36-48.3.2-53.19-31.25-3.15-20.27,1.35-39.39,7.69-58.29,11.67-34.81,31-65.45,52.16-95.09,2-2.85,3.77-5.94,6.11-8.51,1.18-1.3,3.38-1.67,5.12-2.45,0,1.92.72,4.31-.16,5.68-5.48,8.55-11.38,16.83-17,25.28-15.86,23.75-30.21,48.4-39,75.69a251.9,251.9,0,0,0-9.27,42.28c-1.34,9.7,1.18,19.58,6,28.44,6.13,11.21,22.61,16.81,36.41,12.73,10.82-3.19,20-9.31,28-16.85A315.85,315.85,0,0,0,910.46,703c3-3.54,4.43-8.45,6.9-12.54,1-1.72,2.9-3,4.39-4.4.64,1.8,2.11,3.76,1.78,5.36-1.87,9.08-1.26,17.77,2.88,26.13,5.39,10.88,13.27,15,25.27,13.12a41.44,41.44,0,0,0,23.4-11.42c22.91-22.52,36.37-50.16,43.69-81.09A12.23,12.23,0,0,0,1018.79,635.6Zm449.54,110.84a24.24,24.24,0,0,0-3.47-1c-24.39-2.55-48.55-1.87-71.93,6.44-31.49,11.2-47.92,34.2-46.73,66.51.63,17.15,7.16,31.42,24.6,38.23a73.29,73.29,0,0,0,39.77,3.72c28.6-5,49.13-26.58,53.25-55.35,1.13-7.89,2-15.83,2.62-23.78C1467.27,769.66,1467.72,758.06,1468.33,746.44ZM1023.21,598.89c-.13-24.61-2.33-44-11.35-62-6.08-12.18-14.25-22.47-26.26-29.29-10.39-5.9-21.46-3.57-27.9,6.49-2.71,4.23-5.18,9.35-5.49,14.21a157.75,157.75,0,0,0,.94,28.24c2.71,22.74,12.25,42.33,28.86,58.3,9.56,9.18,21,13.66,34.24,14.14,3,.11,4.49-.62,4.72-4C1021.67,614.64,1022.72,604.38,1023.21,598.89Zm221.1-15.12c-6.9.9-12.79,1.78-18.71,2.41-15.53,1.65-16.23,1.51-18.4,16.66-3.57,25-6.22,50.13-9.07,75.23-.5,4.32-.07,8.75-.07,13.13C1219,658,1239.85,625,1244.31,583.77ZM1425.58,712.4c1.79-1.41,3.07-2.38,4.31-3.41,16.69-13.81,30.29-30.48,42.74-48,5.42-7.62,8.82-16.69,13-25.18,1.9-3.89,0-5.87-3.92-6.59a29.67,29.67,0,0,0-24,5.57c-16.92,12.55-26,29.88-30.61,50C1425,693.64,1423.86,702.62,1425.58,712.4ZM1039.4,615.76a18.54,18.54,0,0,0,1.9-1.68c14-17.9,22.36-38.41,27.21-60.37,1.06-4.83.14-10.19-.46-15.24-.19-1.59-2.33-3-3.57-4.41-1.22,1.22-3,2.24-3.58,3.71-3.64,8.91-7.38,17.8-10.42,26.92A224.57,224.57,0,0,0,1039.4,615.76Zm173-34.74,32.26-4.17c-.36-3.5-.52-6.61-1-9.67-1.22-7.27-3.06-14.34-8.18-20-2-2.22-4-3.5-6.6-.56C1220.34,556.34,1216.5,568.24,1212.44,581Zm-79.18,123.1,1.4.65c4.15-7.67,8.66-15.18,12.32-23.07,2-4.29,2.64-9.22,3.61-13.91.22-1.06-.74-2.36-1.16-3.55-1.28.5-2.83.7-3.78,1.57a15.43,15.43,0,0,0-2.75,4.1A78.09,78.09,0,0,0,1133.26,704.12Zm120.41-5.39c7.68-9.9,14.17-20.32,14.07-33.5C1257.84,674.15,1257.27,687.09,1253.67,698.73Zm222.1,9.31c7.92-5.09,11.15-12.52,7.84-18.19C1477.26,694.31,1477.12,701.12,1475.77,708Z" transform="translate(-44.55 -48.54)"/><path d="M714.84,737c-.42-9.33-.81-18.1-1.25-27.9-3.32,2.92-5.9,5.65-8.91,7.76-6.24,4.37-12.31,9.28-19.16,12.4-13,5.93-22.09-1-20.07-15.33,1.48-10.49,4.37-20.79,6.83-31.13,1.69-7.12,3.88-14.12,5.51-21.25.56-2.46.09-5.15.09-9.34-4.23,3.14-7.9,5-10.37,7.88-8.11,9.48-15.76,19.35-23.63,29-10.39,12.81-20.67,25.75-34.6,35.07-2.34,1.58-4.8,3-7.26,4.4-15.67,9-25.41,7.2-36.61-6.62-4.07,2.48-8,5.25-12.27,7.38-9.36,4.71-16.74,1-17.16-9.42-.57-14.09-.12-28.23.35-42.34.4-11.81,1.48-23.59,2.15-35.38a20.94,20.94,0,0,0-.65-4.94c-.63-3.24-2.8-4.4-5.44-2.66-4.39,2.89-9.35,5.6-12.46,9.62-7.2,9.33-14.33,18.92-19.87,29.27-9.88,18.45-18.51,37.56-27.82,56.32-.67,1.35-2.55,2.1-3.87,3.14-.89-1.57-2.64-3.22-2.51-4.69,1.29-14.58,2.86-29.13,4.43-43.68.34-3.22,1-6.4,1.47-9.6l-1.25-.61c-2.91,4.14-5.93,8.2-8.7,12.43-7.46,11.43-14.76,23-22.26,34.36a43.24,43.24,0,0,1-5.6,6.37c-6.31,6.38-13.81,6.45-20.07-.13-2.92-3.07-5.2-6.75-7.45-9.74-6,4.71-11.55,9.65-17.68,13.79-4.89,3.31-10.6,5.17-16.61,2.84-6.64-2.58-9.4-8.09-10.29-14.77-2-14.66,2.12-28.44,6.74-42,4.08-12,9.13-23.58,13.47-35.46,1.32-3.61,1.69-7.58,2.5-11.38l-1.47-1.1c-2.53,1.29-5.29,2.27-7.54,3.94-9.1,6.74-18.17,13.53-26.91,20.72-1.36,1.12-1.51,4.42-1.31,6.63,1.59,17.23-.57,33.86-10.32,48.36-5.4,8-12.71,14.83-19.54,21.81-2.23,2.28-5.52,3.76-8.58,4.95-15.21,5.94-26,.53-31.24-15.27-4.87,3.74-9.52,8-14.81,11.19-6.77,4.1-14.27,5.34-21.11.13s-8-13.07-6.22-20.4c4.37-17.9,9.8-35.54,14.91-53.25,2.45-8.46,5.18-16.84,7.7-25.28A49.17,49.17,0,0,0,259,627c-4.64,2.78-8.17,5.44-12.12,7.14-9.42,4.06-14.95,9.7-10.23,20.61.78,30.46-8.8,56.63-32.26,76.84a34.82,34.82,0,0,1-19.82,8.66c-11.92,1.1-20-4.56-25.3-13.09-10.5,6-20.35,12.58-31,17.39-14.69,6.62-30.18,7.28-45.91,2.94-21-5.78-32.61-19.73-36.41-40.6-3.36-18.49-.27-36.44,5.6-54,12.29-36.84,33.92-67.77,61.21-94.8a456.88,456.88,0,0,1,38.41-33.38c6.28-5,14.09-8.09,21.4-11.67,8.34-4.09,17.12-3.75,25.86-1.33,10.94,3,19.08,13.47,19.58,25.67.74,18.16-7.05,33.21-18,46.91-.73.91-2.8.77-4.24,1.11-.22-1.51-.94-3.2-.51-4.5.54-1.65,2-3,3.11-4.47,6.85-9.29,11.54-19.71,13-31,2.43-18.32-9.55-33.34-32.62-27.22-14.19,3.77-26,12.56-37.07,22.07-25.41,21.84-48.39,45.93-65.39,75-11.3,19.3-20.48,39.66-23.78,62.13-1.51,10.27-2.05,20.5.56,30.74,5.4,21.16,19.63,33.1,41.5,34.89,23,1.88,41.89-7.11,58.58-21.9a6.2,6.2,0,0,0,1.57-5.08c-4.78-20.47-.54-39.66,8-58.21,3.19-6.9,8.64-11.77,15.53-14.91,8.72-4,18.68,1.53,20.63,11.09,1.77,8.7.12,16.92-3.1,24.91-6.06,15-16.35,27-27.55,38.24a43.64,43.64,0,0,1-4.43,3.49c6.11,12.21,15.46,15.91,27,11.22,8.25-3.37,14.7-9.15,19.93-16.2,14.79-19.93,22-42,18.11-67a19.88,19.88,0,0,0-.72-2.54c-7.91,0-15.7.73-23.24-.3-4-.56-8.33-3.5-11.17-6.59-5.44-5.92-2.84-13.66,4.9-16.08,10.31-3.22,18.9.91,26.87,6.94a69.89,69.89,0,0,1,5.8,5.59c6.11-3.73,12.25-7.61,18.53-11.26a34.27,34.27,0,0,1,8.11-3.58c4.35-1.16,6.85.56,6.86,5.17a46.67,46.67,0,0,1-1.7,13.27c-5.77,19.29-12.15,38.39-17.76,57.73a76.14,76.14,0,0,0-3.11,20.6c-.05,9.64,6.34,13.14,15.27,9.47,8.78-3.61,14.51-10.62,19.3-18.21,1.86-3,.94-7.52,2-11.13a128.76,128.76,0,0,1,6.3-17.21c1.84-4,5.62-6,10-4s4.45,6.21,2.72,9.86c-3.27,6.89-6.54,13.91-10.88,20.12s-3.57,15.52.58,20.41c4.43,5.24,10.27,6.83,18.12,3.34,15.18-6.75,24.3-19.32,30.54-34.12,4.94-11.73,5.55-24.06,4.19-36.67-10.41,2.11-14.56,1-16.51-4s.27-11.86,4.88-14.46c5-2.84,9.67-.71,15.85,7.67,5.34-4.12,10.61-8.34,16.05-12.33s10.61-8.1,16.4-11.3c8.55-4.73,14.89-.69,13.78,9.11-.72,6.31-3.21,12.51-5.52,18.53-6.78,17.72-14.63,35.1-16.78,54.2a47.92,47.92,0,0,0,.72,14.33c1.24,6.36,6,8.65,12.1,6.35,9.25-3.48,15.79-10.32,21.46-18.09a3.44,3.44,0,0,0,.54-2.28c-5.08-40.27-1.53-80,7.09-120.32l-22.65,3.76c-.49.08-1,.48-1.44.37-1.85-.52-3.66-1.17-5.48-1.78,1.3-1.39,2.38-3.59,3.95-4A69.45,69.45,0,0,1,400,582.19c9.29-.43,14.71-3.9,16.21-13.88.95-6.27,3.9-12.4,6.82-18.15a54.35,54.35,0,0,1,9.4-13.36c6.21-6.34,14.21-5.9,18.59,1.7,4.58,8,7.44,16.92,10.84,25.53.9,2.26,1,4.84,1.56,7.77,6.68-.65,13.21-1.47,19.77-1.9,16.61-1.08,33.22-2.68,49.84-2.81,25.81-.21,51.64.61,77.45,1a17.27,17.27,0,0,1,5.9.82c1.27.49,2.12,2.07,3.16,3.17-1.29,1-2.45,2.37-3.91,3-1.12.47-2.62,0-4,0-33.14-.28-66.28-1-99.41-.63-15.1.17-30.17,2.51-45.26,3.76-2.64.22-3.86,1.16-3.9,3.94-.66,43-18.66,79.81-41.43,114.86-2.36,3.63-4.41,7.55-7.23,10.77s-2.4,5.81-.3,8.84c.85,1.23,1.6,2.54,2.53,3.71,5.37,6.76,9.19,7.28,14.14.43,8.66-12,16.48-24.58,24.77-36.84,3.25-4.82,6.47-9.76,10.42-14,1.85-2,5.6-3.55,8.15-3.15,3.85.61,4.42,4.78,4.05,8.14-1.19,10.57-2.72,21.1-3.42,32l2.14-3.8c10.07-18,19.9-36.13,30.34-53.9,3.16-5.37,7.76-10,12.2-14.47a30.85,30.85,0,0,1,9.11-6c9.56-4.32,16.33-.19,16.36,10.39s-1,21.29-1.4,31.93c-.56,14.8-1,29.6-1.46,44.39a2.77,2.77,0,0,0,0,.5c.67,9.15,2.92,10.38,10.69,5.83.43-.25.83-.56,1.29-.77,7.3-3.27,9-8.17,8.44-16.58-1.82-26.14,6.06-49.6,23.88-69.27,4.63-5.11,10.57-7.67,17.47-6.9,13.27,1.48,20.4,11.45,17.19,24.49-4.21,17.15-14,31.22-26.12,43.64A259.79,259.79,0,0,1,574,715.06c-2.48,2.05-2.39,3.48-.81,5.74,3.73,5.33,11,8.43,17.22,5.33,8.67-4.37,18-8.81,24.6-15.62,13.71-14.22,25.68-30.11,38.59-45.12a177.81,177.81,0,0,1,14.7-14.87,16.4,16.4,0,0,1,7.09-3.42c5.5-1.32,9.06,1,9.3,6.65a54.48,54.48,0,0,1-1.47,14.78c-3.33,13.91-7.29,27.67-10.63,41.58-.79,3.27-.43,7,0,10.37.51,3.72,3.26,5.13,6.63,3.59,5-2.26,10.07-4.51,14.44-7.69,5.91-4.29,11.1-9.55,16.74-14.21,2.92-2.41,3.49-5.26,3.22-8.84a123.46,123.46,0,0,1,5.94-47.23A33.51,33.51,0,0,1,732,629c3.89-2.85,7.84-5.2,12.87-2.85,5.39,2.5,7.85,7,8.36,12.65,1.09,12.1-3.16,22.73-10,32.23-5.7,8-12.46,15.17-18.5,22.9-1.76,2.25-3.76,5.13-3.8,7.75-.15,10.81.57,21.63.64,32.44,0,3.9,2,5,5.23,5.81,17.5,4.4,33.55,11.86,47.36,23.63,2.31,2,6.86,4.22,3.77,7.84-3.3,3.86-5.74-.8-8.06-2.71C756,757.3,740.15,750.16,722,745.63c0,7.63.12,14.56,0,21.49-.34,16.72-2.45,33.13-7.89,49.08-9.54,27.93-29.61,43-58,47.88-13.3,2.29-26.52,2-39.22-3.52-20.21-8.88-32.76-28.71-32.36-51.34.47-26.34,19.09-52.83,45.31-62.82a163.1,163.1,0,0,1,77.53-9.74c1.49.17,3,.27,4.49.35C712.69,737.06,713.5,737,714.84,737Zm1.58,7.72c-27.47-4.91-52.89-2-77.87,5.75-20.47,6.38-34.72,19.75-43.22,39.37-10.6,24.46-.45,52.66,22.91,63.77,10.44,5,21.36,5.76,32.67,4.38,26.79-3.28,48.88-17.56,57-45.19,2.76-9.38,5.25-19,6.36-28.66C715.74,771.17,715.76,758,716.42,744.74ZM456.84,579.36c-10.5,1.53-20,3.46-29.55,4.14-7.49.54-10,4-11.58,11-7.19,32.27-8.36,64.94-7.56,97.78.08,3.42.82,6.82,1.44,11.7C435.1,665.5,455.32,626.64,456.84,579.36ZM569.75,711.28c7.54-7,14.27-12.69,20.32-19,10.91-11.41,19.66-24.3,24.06-39.68,3.15-11-4.09-19.47-14.74-17.07a19.16,19.16,0,0,0-8.38,5c-8.4,8-13.08,18.34-17.09,28.94C569,682.36,567.92,695.81,569.75,711.28ZM161.21,713.5a6.8,6.8,0,0,0,1.71-.74c10.44-10.16,19.7-21.24,25.92-34.54,3.22-6.87,5-14.11,3.91-21.8-1-7.24-7.54-10.83-13.48-6.79-3.7,2.51-7.58,5.91-9.36,9.83a147.11,147.11,0,0,0-8.78,25.33A60.73,60.73,0,0,0,161.21,713.5ZM455.86,572.61c0-8.88-4.92-23.47-9.92-29.88-3.19-4.08-5.48-4.55-9-1-9.84,10-12.54,23.19-16.79,36.42ZM720.65,688.25c10.16-10.86,20.52-21.58,24.42-36.38a32.85,32.85,0,0,0,.51-14.62c-1.13-5.43-5.19-6.46-9.2-2.75-3.47,3.2-7.2,6.84-9,11.06C721.78,659.05,719.9,673.38,720.65,688.25ZM225.17,638.68c-5.59-6.65-12.32-9.91-20.15-10.19-2.37-.09-4.84,2.47-7.27,3.82,1.82,2.15,3.23,5.41,5.53,6.26C210.18,641.09,217.4,641.06,225.17,638.68Zm112.26,14.63c.29-.88.59-1.76.88-2.65l-6.08-3.61-1.82,5.64Z" transform="translate(-44.55 -48.54)"/><path d="M1277.06,635.2c-.7-1-2.78-2.76-3.11-4.8-.62-3.69,3.1-6.43,7.71-6.46,3.19,0,5.08,1.42,5.18,4.66C1287,632.06,1283.07,635.19,1277.06,635.2Z" transform="translate(-44.55 -48.54)"/><path d="M1167.72,623c2.6.15,4.62,1.7,4.35,5.26-.31,4.06-3,5.87-6.7,5.85-3.29,0-5.45-2.14-5.23-5.4C1160.41,624.8,1163.09,623,1167.72,623Z" transform="translate(-44.55 -48.54)"/></svg>