<svg id="Layer_1" data-name="Layer 1" xmlns="http://www.w3.org/2000/svg" viewBox="0 0 48.49 48.49"><defs><style>.cls-1{fill:#df987e}</style></defs><path class="cls-1" d="M.76 25.05V14.23a13.7 13.7 0 0 1 10.9-13.1 15.88 15.88 0 0 1 2.91-.3h20.85a13.73 13.73 0 0 1 13.36 10.22 13 13 0 0 1 .46 3.45v21.27A13.71 13.71 0 0 1 38 49.06a15.37 15.37 0 0 1-2.62.23h-21A13.73 13.73 0 0 1 1 38.06a14.94 14.94 0 0 1-.23-2.59V25.05ZM25 5.48H14.57a9.64 9.64 0 0 0-1.69.14 9.07 9.07 0 0 0-7.46 9v20.85a9.08 9.08 0 0 0 8.93 9.14h21.28a7.71 7.71 0 0 0 1.44-.13 9.1 9.1 0 0 0 7.5-9V14.66a9.78 9.78 0 0 0-.14-1.66 9.07 9.07 0 0 0-9.07-7.47Z" transform="translate(-.75 -.82)"/><path class="cls-1" d="M12.36 25.05A12.64 12.64 0 1 1 24.9 37.69a12.66 12.66 0 0 1-12.54-12.64Zm4.66 0a8 8 0 1 0 8-8A8 8 0 0 0 17 25.07ZM38 15.15a2.9 2.9 0 1 1 2.85-2.92A2.91 2.91 0 0 1 38 15.15Z" transform="translate(-.75 -.82)"/></svg>